<?xml version="1.0" encoding="utf-8" ?>
<svg baseProfile="full" height="100.0" version="1.1" width="800.0" xmlns="http://www.w3.org/2000/svg" xmlns:ev="http://www.w3.org/2001/xml-events" xmlns:xlink="http://www.w3.org/1999/xlink"><defs /><g data-ir-id="__implicit__" data-role="band" id="__implicit__"><rect fill="#F7F9FB" height="100.0" stroke="#C8D4DD" stroke-width="0.5" width="800.0" x="0.0" y="0.0" /></g><g data-ir-id="raf" id="raf"><polygon fill="#F5A623" points="20.8,34.0 65.2,34.0 78.0,50.0 65.2,66.0 20.8,66.0 8.0,50.0" stroke="#8B5A00" stroke-width="1.5" /><text dominant-baseline="central" fill="#1A1A1A" font-family="Helvetica, Arial, sans-serif" font-size="11.0" text-anchor="middle" x="43.0" y="50.0">RAF</text></g><g data-ir-id="mek" id="mek"><polygon fill="#F5A623" points="377.8,34.0 422.2,34.0 435.0,50.0 422.2,66.0 377.8,66.0 365.0,50.0" stroke="#8B5A00" stroke-width="1.5" /><text dominant-baseline="central" fill="#1A1A1A" font-family="Helvetica, Arial, sans-serif" font-size="11.0" text-anchor="middle" x="400.0" y="50.0">MEK</text></g><g data-ir-id="erk" id="erk"><polygon fill="#F5A623" points="734.8,34.0 779.2,34.0 792.0,50.0 779.2,66.0 734.8,66.0 722.0,50.0" stroke="#8B5A00" stroke-width="1.5" /><text dominant-baseline="central" fill="#1A1A1A" font-family="Helvetica, Arial, sans-serif" font-size="11.0" text-anchor="middle" x="757.0" y="50.0">ERK</text></g><g data-ir-id="rel_raf_phosphorylates_mek" id="rel_raf_phosphorylates_mek"><line stroke="#222222" stroke-width="2.0" x1="82.0" x2="351.0" y1="50.0" y2="50.0" /><polygon fill="#222222" points="361.0,50.0 351.0,54.0 351.0,46.0" stroke="none" /><circle cx="221.5" cy="50.0" fill="#D32F2F" r="8.25" stroke="#1F4E79" stroke-width="1.5" /><text dominant-baseline="central" fill="#FFFFFF" font-family="Helvetica, Arial, sans-serif" font-size="9.9" font-weight="bold" text-anchor="middle" x="221.5" y="50.0">P</text></g><g data-ir-id="rel_mek_phosphorylates_erk" id="rel_mek_phosphorylates_erk"><line stroke="#222222" stroke-width="2.0" x1="439.0" x2="708.0" y1="50.0" y2="50.0" /><polygon fill="#222222" points="718.0,50.0 708.0,54.0 708.0,46.0" stroke="none" /><circle cx="578.5" cy="50.0" fill="#D32F2F" r="8.25" stroke="#1F4E79" stroke-width="1.5" /><text dominant-baseline="central" fill="#FFFFFF" font-family="Helvetica, Arial, sans-serif" font-size="9.9" font-weight="bold" text-anchor="middle" x="578.5" y="50.0">P</text></g></svg>